<mxfile host="Electron" modified="2024-01-14T20:53:52.088Z" agent="Mozilla/5.0 (Windows NT 10.0; Win64; x64) AppleWebKit/537.36 (KHTML, like Gecko) draw.io/22.1.16 Chrome/120.0.6099.109 Electron/28.1.0 Safari/537.36" etag="-v5Lf4CEteyAQvb7kz03" version="22.1.16" type="device">
  <diagram id="1fIC_6LzuITyp3bPN5pk" name="Page-1">
    <mxGraphModel dx="1418" dy="828" grid="1" gridSize="10" guides="1" tooltips="1" connect="1" arrows="1" fold="1" page="1" pageScale="1" pageWidth="827" pageHeight="1169" math="0" shadow="0">
      <root>
        <mxCell id="0" />
        <mxCell id="1" parent="0" />
        <mxCell id="TqpGUL-B7nqfipqS5mNT-1" style="edgeStyle=orthogonalEdgeStyle;rounded=0;orthogonalLoop=1;jettySize=auto;html=1;exitX=0.5;exitY=0;exitDx=0;exitDy=0;entryX=0;entryY=0.5;entryDx=0;entryDy=0;endArrow=none;endFill=0;" parent="1" source="TqpGUL-B7nqfipqS5mNT-5" target="TqpGUL-B7nqfipqS5mNT-31" edge="1">
          <mxGeometry relative="1" as="geometry" />
        </mxCell>
        <mxCell id="TqpGUL-B7nqfipqS5mNT-2" style="edgeStyle=orthogonalEdgeStyle;rounded=0;orthogonalLoop=1;jettySize=auto;html=1;exitX=0.5;exitY=0;exitDx=0;exitDy=0;entryX=1;entryY=0.5;entryDx=0;entryDy=0;endArrow=none;endFill=0;" parent="1" source="TqpGUL-B7nqfipqS5mNT-5" target="TqpGUL-B7nqfipqS5mNT-33" edge="1">
          <mxGeometry relative="1" as="geometry" />
        </mxCell>
        <mxCell id="TqpGUL-B7nqfipqS5mNT-5" value="Пользователь" style="rounded=0;whiteSpace=wrap;html=1;" parent="1" vertex="1">
          <mxGeometry x="834.5" y="544" width="120" height="60" as="geometry" />
        </mxCell>
        <mxCell id="TqpGUL-B7nqfipqS5mNT-7" style="edgeStyle=orthogonalEdgeStyle;rounded=0;orthogonalLoop=1;jettySize=auto;html=1;exitX=0.5;exitY=1;exitDx=0;exitDy=0;entryX=0;entryY=0.5;entryDx=0;entryDy=0;endArrow=none;endFill=0;" parent="1" source="TqpGUL-B7nqfipqS5mNT-10" target="TqpGUL-B7nqfipqS5mNT-44" edge="1">
          <mxGeometry relative="1" as="geometry" />
        </mxCell>
        <mxCell id="TqpGUL-B7nqfipqS5mNT-10" value="Организация" style="rounded=0;whiteSpace=wrap;html=1;" parent="1" vertex="1">
          <mxGeometry x="1176" y="544" width="120" height="60" as="geometry" />
        </mxCell>
        <mxCell id="TqpGUL-B7nqfipqS5mNT-1254" style="edgeStyle=orthogonalEdgeStyle;rounded=0;orthogonalLoop=1;jettySize=auto;html=1;exitX=0;exitY=0.5;exitDx=0;exitDy=0;entryX=0.5;entryY=0;entryDx=0;entryDy=0;endArrow=none;endFill=0;" parent="1" source="Q-6D90cp7sfTwidjcBe4-2" target="TqpGUL-B7nqfipqS5mNT-34" edge="1">
          <mxGeometry relative="1" as="geometry">
            <mxPoint x="403.5" y="854" as="sourcePoint" />
          </mxGeometry>
        </mxCell>
        <mxCell id="TqpGUL-B7nqfipqS5mNT-1255" style="edgeStyle=orthogonalEdgeStyle;rounded=0;orthogonalLoop=1;jettySize=auto;html=1;exitX=0;exitY=0.5;exitDx=0;exitDy=0;entryX=0.5;entryY=1;entryDx=0;entryDy=0;endArrow=none;endFill=0;" parent="1" source="Q-6D90cp7sfTwidjcBe4-2" target="TqpGUL-B7nqfipqS5mNT-35" edge="1">
          <mxGeometry relative="1" as="geometry">
            <mxPoint x="403.5" y="854" as="sourcePoint" />
            <Array as="points">
              <mxPoint x="354" y="860" />
            </Array>
          </mxGeometry>
        </mxCell>
        <mxCell id="TqpGUL-B7nqfipqS5mNT-1256" style="edgeStyle=orthogonalEdgeStyle;rounded=0;orthogonalLoop=1;jettySize=auto;html=1;exitX=0;exitY=0.5;exitDx=0;exitDy=0;entryX=0.5;entryY=0;entryDx=0;entryDy=0;endArrow=none;endFill=0;" parent="1" source="Q-6D90cp7sfTwidjcBe4-2" target="TqpGUL-B7nqfipqS5mNT-37" edge="1">
          <mxGeometry relative="1" as="geometry">
            <mxPoint x="403.5" y="854" as="sourcePoint" />
            <Array as="points">
              <mxPoint x="354" y="860" />
            </Array>
          </mxGeometry>
        </mxCell>
        <mxCell id="TqpGUL-B7nqfipqS5mNT-1257" style="edgeStyle=orthogonalEdgeStyle;rounded=0;orthogonalLoop=1;jettySize=auto;html=1;exitX=0;exitY=0.5;exitDx=0;exitDy=0;entryX=0.5;entryY=1;entryDx=0;entryDy=0;endArrow=none;endFill=0;" parent="1" source="Q-6D90cp7sfTwidjcBe4-2" target="TqpGUL-B7nqfipqS5mNT-40" edge="1">
          <mxGeometry relative="1" as="geometry">
            <mxPoint x="403.5" y="854" as="sourcePoint" />
          </mxGeometry>
        </mxCell>
        <mxCell id="TqpGUL-B7nqfipqS5mNT-31" value="Имя пользователя" style="ellipse;whiteSpace=wrap;html=1;align=center;" parent="1" vertex="1">
          <mxGeometry x="914.5" y="460" width="100" height="40" as="geometry" />
        </mxCell>
        <mxCell id="TqpGUL-B7nqfipqS5mNT-33" value="Id пользователя" style="ellipse;whiteSpace=wrap;html=1;align=center;fontStyle=4;" parent="1" vertex="1">
          <mxGeometry x="770" y="460" width="100" height="40" as="geometry" />
        </mxCell>
        <mxCell id="TqpGUL-B7nqfipqS5mNT-34" value="id сертификата" style="ellipse;whiteSpace=wrap;html=1;align=center;fontStyle=4;" parent="1" vertex="1">
          <mxGeometry x="190" y="880" width="100" height="40" as="geometry" />
        </mxCell>
        <mxCell id="TqpGUL-B7nqfipqS5mNT-35" value="Атрибут роли" style="ellipse;whiteSpace=wrap;html=1;align=center;" parent="1" vertex="1">
          <mxGeometry x="303.5" y="800" width="100" height="40" as="geometry" />
        </mxCell>
        <mxCell id="TqpGUL-B7nqfipqS5mNT-37" value="Атрибут орг подразделения" style="ellipse;whiteSpace=wrap;html=1;align=center;" parent="1" vertex="1">
          <mxGeometry x="303.5" y="880" width="100" height="40" as="geometry" />
        </mxCell>
        <mxCell id="TqpGUL-B7nqfipqS5mNT-40" value="EnrollmentId" style="ellipse;whiteSpace=wrap;html=1;align=center;" parent="1" vertex="1">
          <mxGeometry x="190" y="800" width="100" height="40" as="geometry" />
        </mxCell>
        <mxCell id="TqpGUL-B7nqfipqS5mNT-42" value="Id организации" style="ellipse;whiteSpace=wrap;html=1;align=center;fontStyle=4;" parent="1" vertex="1">
          <mxGeometry x="1106" y="624" width="100" height="40" as="geometry" />
        </mxCell>
        <mxCell id="TqpGUL-B7nqfipqS5mNT-44" value="Имя организации" style="ellipse;whiteSpace=wrap;html=1;align=center;" parent="1" vertex="1">
          <mxGeometry x="1270" y="624" width="100" height="40" as="geometry" />
        </mxCell>
        <mxCell id="TqpGUL-B7nqfipqS5mNT-47" style="edgeStyle=orthogonalEdgeStyle;rounded=0;orthogonalLoop=1;jettySize=auto;html=1;exitX=0.5;exitY=1;exitDx=0;exitDy=0;entryX=1;entryY=0.5;entryDx=0;entryDy=0;endArrow=none;endFill=0;" parent="1" source="TqpGUL-B7nqfipqS5mNT-10" target="TqpGUL-B7nqfipqS5mNT-42" edge="1">
          <mxGeometry relative="1" as="geometry" />
        </mxCell>
        <mxCell id="TqpGUL-B7nqfipqS5mNT-48" value="Id транзакции" style="ellipse;whiteSpace=wrap;html=1;align=center;fontStyle=4;" parent="1" vertex="1">
          <mxGeometry x="734.5" y="920" width="100" height="40" as="geometry" />
        </mxCell>
        <mxCell id="TqpGUL-B7nqfipqS5mNT-49" value="Id сертификата отправителя" style="ellipse;whiteSpace=wrap;html=1;align=center;" parent="1" vertex="1">
          <mxGeometry x="844.5" y="970" width="100" height="40" as="geometry" />
        </mxCell>
        <mxCell id="TqpGUL-B7nqfipqS5mNT-50" value="Id сертификата получателя" style="ellipse;whiteSpace=wrap;html=1;align=center;" parent="1" vertex="1">
          <mxGeometry x="970" y="920" width="100" height="40" as="geometry" />
        </mxCell>
        <mxCell id="TqpGUL-B7nqfipqS5mNT-61" style="edgeStyle=orthogonalEdgeStyle;orthogonalLoop=1;jettySize=auto;html=1;exitX=1;exitY=0.5;exitDx=0;exitDy=0;entryX=0;entryY=0.5;entryDx=0;entryDy=0;rounded=0;endArrow=none;endFill=0;" parent="1" source="TqpGUL-B7nqfipqS5mNT-63" target="TqpGUL-B7nqfipqS5mNT-5" edge="1">
          <mxGeometry relative="1" as="geometry" />
        </mxCell>
        <mxCell id="TqpGUL-B7nqfipqS5mNT-62" style="edgeStyle=orthogonalEdgeStyle;orthogonalLoop=1;jettySize=auto;html=1;exitX=0.5;exitY=1;exitDx=0;exitDy=0;entryX=0.5;entryY=0;entryDx=0;entryDy=0;rounded=0;endArrow=none;endFill=0;" parent="1" source="TqpGUL-B7nqfipqS5mNT-63" target="Q-6D90cp7sfTwidjcBe4-2" edge="1">
          <mxGeometry relative="1" as="geometry">
            <mxPoint x="463.5" y="1024" as="targetPoint" />
          </mxGeometry>
        </mxCell>
        <mxCell id="TqpGUL-B7nqfipqS5mNT-63" value="Имеет" style="shape=rhombus;perimeter=rhombusPerimeter;whiteSpace=wrap;html=1;align=center;" parent="1" vertex="1">
          <mxGeometry x="403.5" y="544" width="120" height="60" as="geometry" />
        </mxCell>
        <mxCell id="TqpGUL-B7nqfipqS5mNT-64" style="edgeStyle=orthogonalEdgeStyle;orthogonalLoop=1;jettySize=auto;html=1;exitX=1;exitY=0.5;exitDx=0;exitDy=0;entryX=0;entryY=0.5;entryDx=0;entryDy=0;rounded=0;endArrow=none;endFill=0;" parent="1" source="TqpGUL-B7nqfipqS5mNT-66" target="Q-6D90cp7sfTwidjcBe4-1" edge="1">
          <mxGeometry relative="1" as="geometry">
            <mxPoint x="737.25" y="863.5" as="sourcePoint" />
            <mxPoint x="831.75" y="857.5" as="targetPoint" />
          </mxGeometry>
        </mxCell>
        <mxCell id="TqpGUL-B7nqfipqS5mNT-65" style="edgeStyle=orthogonalEdgeStyle;orthogonalLoop=1;jettySize=auto;html=1;exitX=0;exitY=0.5;exitDx=0;exitDy=0;entryX=1;entryY=0.5;entryDx=0;entryDy=0;rounded=0;endArrow=none;endFill=0;" parent="1" source="TqpGUL-B7nqfipqS5mNT-66" target="Q-6D90cp7sfTwidjcBe4-2" edge="1">
          <mxGeometry relative="1" as="geometry">
            <mxPoint x="443.5" y="914" as="targetPoint" />
          </mxGeometry>
        </mxCell>
        <mxCell id="TqpGUL-B7nqfipqS5mNT-66" value="Проверяется" style="shape=rhombus;perimeter=rhombusPerimeter;whiteSpace=wrap;html=1;align=center;" parent="1" vertex="1">
          <mxGeometry x="607" y="830" width="120" height="60" as="geometry" />
        </mxCell>
        <mxCell id="TqpGUL-B7nqfipqS5mNT-67" value="1" style="text;html=1;align=center;verticalAlign=middle;resizable=0;points=[];autosize=1;strokeColor=none;fillColor=none;" parent="1" vertex="1">
          <mxGeometry x="523.5" y="544" width="30" height="30" as="geometry" />
        </mxCell>
        <mxCell id="TqpGUL-B7nqfipqS5mNT-68" value="М" style="text;html=1;align=center;verticalAlign=middle;resizable=0;points=[];autosize=1;strokeColor=none;fillColor=none;" parent="1" vertex="1">
          <mxGeometry x="464" y="604" width="30" height="30" as="geometry" />
        </mxCell>
        <mxCell id="TqpGUL-B7nqfipqS5mNT-1238" style="edgeStyle=orthogonalEdgeStyle;rounded=0;orthogonalLoop=1;jettySize=auto;html=1;exitX=1;exitY=0.5;exitDx=0;exitDy=0;entryX=0;entryY=0.5;entryDx=0;entryDy=0;endArrow=none;endFill=0;" parent="1" source="TqpGUL-B7nqfipqS5mNT-1237" target="TqpGUL-B7nqfipqS5mNT-10" edge="1">
          <mxGeometry relative="1" as="geometry" />
        </mxCell>
        <mxCell id="TqpGUL-B7nqfipqS5mNT-1239" style="edgeStyle=orthogonalEdgeStyle;rounded=0;orthogonalLoop=1;jettySize=auto;html=1;exitX=0;exitY=0.5;exitDx=0;exitDy=0;entryX=1;entryY=0.5;entryDx=0;entryDy=0;endArrow=none;endFill=0;" parent="1" source="TqpGUL-B7nqfipqS5mNT-1237" target="TqpGUL-B7nqfipqS5mNT-5" edge="1">
          <mxGeometry relative="1" as="geometry" />
        </mxCell>
        <mxCell id="TqpGUL-B7nqfipqS5mNT-1237" value="Принадлежит" style="shape=rhombus;perimeter=rhombusPerimeter;whiteSpace=wrap;html=1;align=center;" parent="1" vertex="1">
          <mxGeometry x="1000" y="544" width="120" height="60" as="geometry" />
        </mxCell>
        <mxCell id="TqpGUL-B7nqfipqS5mNT-1240" value="1" style="text;html=1;align=center;verticalAlign=middle;resizable=0;points=[];autosize=1;strokeColor=none;fillColor=none;" parent="1" vertex="1">
          <mxGeometry x="970" y="544" width="30" height="30" as="geometry" />
        </mxCell>
        <mxCell id="TqpGUL-B7nqfipqS5mNT-1241" value="М" style="text;html=1;align=center;verticalAlign=middle;resizable=0;points=[];autosize=1;strokeColor=none;fillColor=none;" parent="1" vertex="1">
          <mxGeometry x="1120" y="544" width="30" height="30" as="geometry" />
        </mxCell>
        <mxCell id="TqpGUL-B7nqfipqS5mNT-1242" value="1" style="text;html=1;align=center;verticalAlign=middle;resizable=0;points=[];autosize=1;strokeColor=none;fillColor=none;" parent="1" vertex="1">
          <mxGeometry x="727" y="830" width="30" height="30" as="geometry" />
        </mxCell>
        <mxCell id="TqpGUL-B7nqfipqS5mNT-1243" value="М" style="text;html=1;align=center;verticalAlign=middle;resizable=0;points=[];autosize=1;strokeColor=none;fillColor=none;" parent="1" vertex="1">
          <mxGeometry x="577" y="827.5" width="30" height="30" as="geometry" />
        </mxCell>
        <mxCell id="TqpGUL-B7nqfipqS5mNT-1263" style="edgeStyle=orthogonalEdgeStyle;rounded=0;orthogonalLoop=1;jettySize=auto;html=1;exitX=0.5;exitY=0;exitDx=0;exitDy=0;entryX=0.5;entryY=1;entryDx=0;entryDy=0;endArrow=none;endFill=0;" parent="1" source="TqpGUL-B7nqfipqS5mNT-1261" target="TqpGUL-B7nqfipqS5mNT-5" edge="1">
          <mxGeometry relative="1" as="geometry" />
        </mxCell>
        <mxCell id="TqpGUL-B7nqfipqS5mNT-1264" style="edgeStyle=orthogonalEdgeStyle;rounded=0;orthogonalLoop=1;jettySize=auto;html=1;exitX=0.5;exitY=1;exitDx=0;exitDy=0;endArrow=none;endFill=0;entryX=0.5;entryY=0;entryDx=0;entryDy=0;" parent="1" source="TqpGUL-B7nqfipqS5mNT-1261" target="Q-6D90cp7sfTwidjcBe4-1" edge="1">
          <mxGeometry relative="1" as="geometry">
            <mxPoint x="895" y="1030" as="targetPoint" />
          </mxGeometry>
        </mxCell>
        <mxCell id="TqpGUL-B7nqfipqS5mNT-1261" value="Проводит" style="shape=rhombus;perimeter=rhombusPerimeter;whiteSpace=wrap;html=1;align=center;" parent="1" vertex="1">
          <mxGeometry x="834.5" y="670" width="120" height="60" as="geometry" />
        </mxCell>
        <mxCell id="TqpGUL-B7nqfipqS5mNT-1265" value="1" style="text;html=1;align=center;verticalAlign=middle;resizable=0;points=[];autosize=1;strokeColor=none;fillColor=none;" parent="1" vertex="1">
          <mxGeometry x="900" y="640" width="30" height="30" as="geometry" />
        </mxCell>
        <mxCell id="TqpGUL-B7nqfipqS5mNT-1266" value="М" style="text;html=1;align=center;verticalAlign=middle;resizable=0;points=[];autosize=1;strokeColor=none;fillColor=none;" parent="1" vertex="1">
          <mxGeometry x="900" y="730" width="30" height="30" as="geometry" />
        </mxCell>
        <mxCell id="Q-6D90cp7sfTwidjcBe4-1" value="Транзакция" style="rounded=0;whiteSpace=wrap;html=1;" vertex="1" parent="1">
          <mxGeometry x="834.5" y="830" width="120" height="60" as="geometry" />
        </mxCell>
        <mxCell id="Q-6D90cp7sfTwidjcBe4-2" value="Сертификат" style="rounded=0;whiteSpace=wrap;html=1;" vertex="1" parent="1">
          <mxGeometry x="403.5" y="830" width="120" height="60" as="geometry" />
        </mxCell>
        <mxCell id="Q-6D90cp7sfTwidjcBe4-3" value="" style="endArrow=none;html=1;rounded=0;entryX=1;entryY=0.5;entryDx=0;entryDy=0;exitX=0.5;exitY=1;exitDx=0;exitDy=0;" edge="1" parent="1" source="Q-6D90cp7sfTwidjcBe4-1" target="TqpGUL-B7nqfipqS5mNT-48">
          <mxGeometry width="50" height="50" relative="1" as="geometry">
            <mxPoint x="710" y="830" as="sourcePoint" />
            <mxPoint x="760" y="780" as="targetPoint" />
            <Array as="points">
              <mxPoint x="895" y="940" />
            </Array>
          </mxGeometry>
        </mxCell>
        <mxCell id="Q-6D90cp7sfTwidjcBe4-4" value="" style="endArrow=none;html=1;rounded=0;entryX=0.5;entryY=0;entryDx=0;entryDy=0;exitX=0.5;exitY=1;exitDx=0;exitDy=0;" edge="1" parent="1" source="Q-6D90cp7sfTwidjcBe4-1" target="TqpGUL-B7nqfipqS5mNT-49">
          <mxGeometry width="50" height="50" relative="1" as="geometry">
            <mxPoint x="710" y="830" as="sourcePoint" />
            <mxPoint x="760" y="780" as="targetPoint" />
          </mxGeometry>
        </mxCell>
        <mxCell id="Q-6D90cp7sfTwidjcBe4-5" value="" style="endArrow=none;html=1;rounded=0;entryX=0;entryY=0.5;entryDx=0;entryDy=0;exitX=0.5;exitY=1;exitDx=0;exitDy=0;" edge="1" parent="1" source="Q-6D90cp7sfTwidjcBe4-1" target="TqpGUL-B7nqfipqS5mNT-50">
          <mxGeometry width="50" height="50" relative="1" as="geometry">
            <mxPoint x="710" y="830" as="sourcePoint" />
            <mxPoint x="760" y="780" as="targetPoint" />
            <Array as="points">
              <mxPoint x="895" y="940" />
            </Array>
          </mxGeometry>
        </mxCell>
        <mxCell id="Q-6D90cp7sfTwidjcBe4-6" value="Пользователь" style="shape=table;startSize=30;container=1;collapsible=1;childLayout=tableLayout;fixedRows=1;rowLines=0;fontStyle=1;align=center;resizeLast=1;html=1;" vertex="1" parent="1">
          <mxGeometry x="1740" y="534" width="180" height="60" as="geometry" />
        </mxCell>
        <mxCell id="Q-6D90cp7sfTwidjcBe4-7" value="" style="shape=tableRow;horizontal=0;startSize=0;swimlaneHead=0;swimlaneBody=0;fillColor=none;collapsible=0;dropTarget=0;points=[[0,0.5],[1,0.5]];portConstraint=eastwest;top=0;left=0;right=0;bottom=1;" vertex="1" parent="Q-6D90cp7sfTwidjcBe4-6">
          <mxGeometry y="30" width="180" height="30" as="geometry" />
        </mxCell>
        <mxCell id="Q-6D90cp7sfTwidjcBe4-8" value="PK" style="shape=partialRectangle;connectable=0;fillColor=none;top=0;left=0;bottom=0;right=0;fontStyle=1;overflow=hidden;whiteSpace=wrap;html=1;" vertex="1" parent="Q-6D90cp7sfTwidjcBe4-7">
          <mxGeometry width="30" height="30" as="geometry">
            <mxRectangle width="30" height="30" as="alternateBounds" />
          </mxGeometry>
        </mxCell>
        <mxCell id="Q-6D90cp7sfTwidjcBe4-9" value="Id пользователя" style="shape=partialRectangle;connectable=0;fillColor=none;top=0;left=0;bottom=0;right=0;align=left;spacingLeft=6;fontStyle=5;overflow=hidden;whiteSpace=wrap;html=1;" vertex="1" parent="Q-6D90cp7sfTwidjcBe4-7">
          <mxGeometry x="30" width="150" height="30" as="geometry">
            <mxRectangle width="150" height="30" as="alternateBounds" />
          </mxGeometry>
        </mxCell>
        <mxCell id="Q-6D90cp7sfTwidjcBe4-19" value="Пользователь_Организация" style="shape=table;startSize=30;container=1;collapsible=1;childLayout=tableLayout;fixedRows=1;rowLines=0;fontStyle=1;align=center;resizeLast=1;html=1;" vertex="1" parent="1">
          <mxGeometry x="1980" y="294" width="180" height="90" as="geometry" />
        </mxCell>
        <mxCell id="Q-6D90cp7sfTwidjcBe4-23" value="" style="shape=tableRow;horizontal=0;startSize=0;swimlaneHead=0;swimlaneBody=0;fillColor=none;collapsible=0;dropTarget=0;points=[[0,0.5],[1,0.5]];portConstraint=eastwest;top=0;left=0;right=0;bottom=0;" vertex="1" parent="Q-6D90cp7sfTwidjcBe4-19">
          <mxGeometry y="30" width="180" height="30" as="geometry" />
        </mxCell>
        <mxCell id="Q-6D90cp7sfTwidjcBe4-24" value="FK" style="shape=partialRectangle;connectable=0;fillColor=none;top=0;left=0;bottom=0;right=0;editable=1;overflow=hidden;whiteSpace=wrap;html=1;" vertex="1" parent="Q-6D90cp7sfTwidjcBe4-23">
          <mxGeometry width="30" height="30" as="geometry">
            <mxRectangle width="30" height="30" as="alternateBounds" />
          </mxGeometry>
        </mxCell>
        <mxCell id="Q-6D90cp7sfTwidjcBe4-25" value="Id пользователя" style="shape=partialRectangle;connectable=0;fillColor=none;top=0;left=0;bottom=0;right=0;align=left;spacingLeft=6;overflow=hidden;whiteSpace=wrap;html=1;" vertex="1" parent="Q-6D90cp7sfTwidjcBe4-23">
          <mxGeometry x="30" width="150" height="30" as="geometry">
            <mxRectangle width="150" height="30" as="alternateBounds" />
          </mxGeometry>
        </mxCell>
        <mxCell id="Q-6D90cp7sfTwidjcBe4-26" value="" style="shape=tableRow;horizontal=0;startSize=0;swimlaneHead=0;swimlaneBody=0;fillColor=none;collapsible=0;dropTarget=0;points=[[0,0.5],[1,0.5]];portConstraint=eastwest;top=0;left=0;right=0;bottom=0;" vertex="1" parent="Q-6D90cp7sfTwidjcBe4-19">
          <mxGeometry y="60" width="180" height="30" as="geometry" />
        </mxCell>
        <mxCell id="Q-6D90cp7sfTwidjcBe4-27" value="FK" style="shape=partialRectangle;connectable=0;fillColor=none;top=0;left=0;bottom=0;right=0;editable=1;overflow=hidden;whiteSpace=wrap;html=1;" vertex="1" parent="Q-6D90cp7sfTwidjcBe4-26">
          <mxGeometry width="30" height="30" as="geometry">
            <mxRectangle width="30" height="30" as="alternateBounds" />
          </mxGeometry>
        </mxCell>
        <mxCell id="Q-6D90cp7sfTwidjcBe4-28" value="Id организации" style="shape=partialRectangle;connectable=0;fillColor=none;top=0;left=0;bottom=0;right=0;align=left;spacingLeft=6;overflow=hidden;whiteSpace=wrap;html=1;" vertex="1" parent="Q-6D90cp7sfTwidjcBe4-26">
          <mxGeometry x="30" width="150" height="30" as="geometry">
            <mxRectangle width="150" height="30" as="alternateBounds" />
          </mxGeometry>
        </mxCell>
        <mxCell id="Q-6D90cp7sfTwidjcBe4-32" value="Сертификат" style="shape=table;startSize=30;container=1;collapsible=1;childLayout=tableLayout;fixedRows=1;rowLines=0;fontStyle=1;align=center;resizeLast=1;html=1;" vertex="1" parent="1">
          <mxGeometry x="2020" y="504" width="180" height="120" as="geometry" />
        </mxCell>
        <mxCell id="Q-6D90cp7sfTwidjcBe4-33" value="" style="shape=tableRow;horizontal=0;startSize=0;swimlaneHead=0;swimlaneBody=0;fillColor=none;collapsible=0;dropTarget=0;points=[[0,0.5],[1,0.5]];portConstraint=eastwest;top=0;left=0;right=0;bottom=1;" vertex="1" parent="Q-6D90cp7sfTwidjcBe4-32">
          <mxGeometry y="30" width="180" height="30" as="geometry" />
        </mxCell>
        <mxCell id="Q-6D90cp7sfTwidjcBe4-34" value="PK" style="shape=partialRectangle;connectable=0;fillColor=none;top=0;left=0;bottom=0;right=0;fontStyle=1;overflow=hidden;whiteSpace=wrap;html=1;" vertex="1" parent="Q-6D90cp7sfTwidjcBe4-33">
          <mxGeometry width="30" height="30" as="geometry">
            <mxRectangle width="30" height="30" as="alternateBounds" />
          </mxGeometry>
        </mxCell>
        <mxCell id="Q-6D90cp7sfTwidjcBe4-35" value="Id сертификата" style="shape=partialRectangle;connectable=0;fillColor=none;top=0;left=0;bottom=0;right=0;align=left;spacingLeft=6;fontStyle=5;overflow=hidden;whiteSpace=wrap;html=1;" vertex="1" parent="Q-6D90cp7sfTwidjcBe4-33">
          <mxGeometry x="30" width="150" height="30" as="geometry">
            <mxRectangle width="150" height="30" as="alternateBounds" />
          </mxGeometry>
        </mxCell>
        <mxCell id="Q-6D90cp7sfTwidjcBe4-36" value="" style="shape=tableRow;horizontal=0;startSize=0;swimlaneHead=0;swimlaneBody=0;fillColor=none;collapsible=0;dropTarget=0;points=[[0,0.5],[1,0.5]];portConstraint=eastwest;top=0;left=0;right=0;bottom=0;" vertex="1" parent="Q-6D90cp7sfTwidjcBe4-32">
          <mxGeometry y="60" width="180" height="30" as="geometry" />
        </mxCell>
        <mxCell id="Q-6D90cp7sfTwidjcBe4-37" value="FK" style="shape=partialRectangle;connectable=0;fillColor=none;top=0;left=0;bottom=0;right=0;editable=1;overflow=hidden;whiteSpace=wrap;html=1;" vertex="1" parent="Q-6D90cp7sfTwidjcBe4-36">
          <mxGeometry width="30" height="30" as="geometry">
            <mxRectangle width="30" height="30" as="alternateBounds" />
          </mxGeometry>
        </mxCell>
        <mxCell id="Q-6D90cp7sfTwidjcBe4-38" value="EnrollmentId" style="shape=partialRectangle;connectable=0;fillColor=none;top=0;left=0;bottom=0;right=0;align=left;spacingLeft=6;overflow=hidden;whiteSpace=wrap;html=1;" vertex="1" parent="Q-6D90cp7sfTwidjcBe4-36">
          <mxGeometry x="30" width="150" height="30" as="geometry">
            <mxRectangle width="150" height="30" as="alternateBounds" />
          </mxGeometry>
        </mxCell>
        <mxCell id="Q-6D90cp7sfTwidjcBe4-113" value="" style="shape=tableRow;horizontal=0;startSize=0;swimlaneHead=0;swimlaneBody=0;fillColor=none;collapsible=0;dropTarget=0;points=[[0,0.5],[1,0.5]];portConstraint=eastwest;top=0;left=0;right=0;bottom=0;" vertex="1" parent="Q-6D90cp7sfTwidjcBe4-32">
          <mxGeometry y="90" width="180" height="30" as="geometry" />
        </mxCell>
        <mxCell id="Q-6D90cp7sfTwidjcBe4-114" value="FK" style="shape=partialRectangle;connectable=0;fillColor=none;top=0;left=0;bottom=0;right=0;editable=1;overflow=hidden;whiteSpace=wrap;html=1;" vertex="1" parent="Q-6D90cp7sfTwidjcBe4-113">
          <mxGeometry width="30" height="30" as="geometry">
            <mxRectangle width="30" height="30" as="alternateBounds" />
          </mxGeometry>
        </mxCell>
        <mxCell id="Q-6D90cp7sfTwidjcBe4-115" value="Атрибут орг подразделения" style="shape=partialRectangle;connectable=0;fillColor=none;top=0;left=0;bottom=0;right=0;align=left;spacingLeft=6;overflow=hidden;whiteSpace=wrap;html=1;" vertex="1" parent="Q-6D90cp7sfTwidjcBe4-113">
          <mxGeometry x="30" width="150" height="30" as="geometry">
            <mxRectangle width="150" height="30" as="alternateBounds" />
          </mxGeometry>
        </mxCell>
        <mxCell id="Q-6D90cp7sfTwidjcBe4-45" value="Транзакция" style="shape=table;startSize=30;container=1;collapsible=1;childLayout=tableLayout;fixedRows=1;rowLines=0;fontStyle=1;align=center;resizeLast=1;html=1;" vertex="1" parent="1">
          <mxGeometry x="2260" y="384" width="180" height="120" as="geometry" />
        </mxCell>
        <mxCell id="Q-6D90cp7sfTwidjcBe4-46" value="" style="shape=tableRow;horizontal=0;startSize=0;swimlaneHead=0;swimlaneBody=0;fillColor=none;collapsible=0;dropTarget=0;points=[[0,0.5],[1,0.5]];portConstraint=eastwest;top=0;left=0;right=0;bottom=1;" vertex="1" parent="Q-6D90cp7sfTwidjcBe4-45">
          <mxGeometry y="30" width="180" height="30" as="geometry" />
        </mxCell>
        <mxCell id="Q-6D90cp7sfTwidjcBe4-47" value="PK" style="shape=partialRectangle;connectable=0;fillColor=none;top=0;left=0;bottom=0;right=0;fontStyle=1;overflow=hidden;whiteSpace=wrap;html=1;" vertex="1" parent="Q-6D90cp7sfTwidjcBe4-46">
          <mxGeometry width="30" height="30" as="geometry">
            <mxRectangle width="30" height="30" as="alternateBounds" />
          </mxGeometry>
        </mxCell>
        <mxCell id="Q-6D90cp7sfTwidjcBe4-48" value="Id транзакции" style="shape=partialRectangle;connectable=0;fillColor=none;top=0;left=0;bottom=0;right=0;align=left;spacingLeft=6;fontStyle=5;overflow=hidden;whiteSpace=wrap;html=1;" vertex="1" parent="Q-6D90cp7sfTwidjcBe4-46">
          <mxGeometry x="30" width="150" height="30" as="geometry">
            <mxRectangle width="150" height="30" as="alternateBounds" />
          </mxGeometry>
        </mxCell>
        <mxCell id="Q-6D90cp7sfTwidjcBe4-49" value="" style="shape=tableRow;horizontal=0;startSize=0;swimlaneHead=0;swimlaneBody=0;fillColor=none;collapsible=0;dropTarget=0;points=[[0,0.5],[1,0.5]];portConstraint=eastwest;top=0;left=0;right=0;bottom=0;" vertex="1" parent="Q-6D90cp7sfTwidjcBe4-45">
          <mxGeometry y="60" width="180" height="30" as="geometry" />
        </mxCell>
        <mxCell id="Q-6D90cp7sfTwidjcBe4-50" value="FK" style="shape=partialRectangle;connectable=0;fillColor=none;top=0;left=0;bottom=0;right=0;editable=1;overflow=hidden;whiteSpace=wrap;html=1;" vertex="1" parent="Q-6D90cp7sfTwidjcBe4-49">
          <mxGeometry width="30" height="30" as="geometry">
            <mxRectangle width="30" height="30" as="alternateBounds" />
          </mxGeometry>
        </mxCell>
        <mxCell id="Q-6D90cp7sfTwidjcBe4-51" value="Id сертификата отправителя" style="shape=partialRectangle;connectable=0;fillColor=none;top=0;left=0;bottom=0;right=0;align=left;spacingLeft=6;overflow=hidden;whiteSpace=wrap;html=1;" vertex="1" parent="Q-6D90cp7sfTwidjcBe4-49">
          <mxGeometry x="30" width="150" height="30" as="geometry">
            <mxRectangle width="150" height="30" as="alternateBounds" />
          </mxGeometry>
        </mxCell>
        <mxCell id="Q-6D90cp7sfTwidjcBe4-52" value="" style="shape=tableRow;horizontal=0;startSize=0;swimlaneHead=0;swimlaneBody=0;fillColor=none;collapsible=0;dropTarget=0;points=[[0,0.5],[1,0.5]];portConstraint=eastwest;top=0;left=0;right=0;bottom=0;" vertex="1" parent="Q-6D90cp7sfTwidjcBe4-45">
          <mxGeometry y="90" width="180" height="30" as="geometry" />
        </mxCell>
        <mxCell id="Q-6D90cp7sfTwidjcBe4-53" value="FK" style="shape=partialRectangle;connectable=0;fillColor=none;top=0;left=0;bottom=0;right=0;editable=1;overflow=hidden;whiteSpace=wrap;html=1;" vertex="1" parent="Q-6D90cp7sfTwidjcBe4-52">
          <mxGeometry width="30" height="30" as="geometry">
            <mxRectangle width="30" height="30" as="alternateBounds" />
          </mxGeometry>
        </mxCell>
        <mxCell id="Q-6D90cp7sfTwidjcBe4-54" value="Id сертификата получателя" style="shape=partialRectangle;connectable=0;fillColor=none;top=0;left=0;bottom=0;right=0;align=left;spacingLeft=6;overflow=hidden;whiteSpace=wrap;html=1;" vertex="1" parent="Q-6D90cp7sfTwidjcBe4-52">
          <mxGeometry x="30" width="150" height="30" as="geometry">
            <mxRectangle width="150" height="30" as="alternateBounds" />
          </mxGeometry>
        </mxCell>
        <mxCell id="Q-6D90cp7sfTwidjcBe4-58" value="Организация" style="shape=table;startSize=30;container=1;collapsible=1;childLayout=tableLayout;fixedRows=1;rowLines=0;fontStyle=1;align=center;resizeLast=1;html=1;" vertex="1" parent="1">
          <mxGeometry x="1700" y="360" width="180" height="60" as="geometry" />
        </mxCell>
        <mxCell id="Q-6D90cp7sfTwidjcBe4-59" value="" style="shape=tableRow;horizontal=0;startSize=0;swimlaneHead=0;swimlaneBody=0;fillColor=none;collapsible=0;dropTarget=0;points=[[0,0.5],[1,0.5]];portConstraint=eastwest;top=0;left=0;right=0;bottom=1;" vertex="1" parent="Q-6D90cp7sfTwidjcBe4-58">
          <mxGeometry y="30" width="180" height="30" as="geometry" />
        </mxCell>
        <mxCell id="Q-6D90cp7sfTwidjcBe4-60" value="PK" style="shape=partialRectangle;connectable=0;fillColor=none;top=0;left=0;bottom=0;right=0;fontStyle=1;overflow=hidden;whiteSpace=wrap;html=1;" vertex="1" parent="Q-6D90cp7sfTwidjcBe4-59">
          <mxGeometry width="30" height="30" as="geometry">
            <mxRectangle width="30" height="30" as="alternateBounds" />
          </mxGeometry>
        </mxCell>
        <mxCell id="Q-6D90cp7sfTwidjcBe4-61" value="Id организации" style="shape=partialRectangle;connectable=0;fillColor=none;top=0;left=0;bottom=0;right=0;align=left;spacingLeft=6;fontStyle=5;overflow=hidden;whiteSpace=wrap;html=1;" vertex="1" parent="Q-6D90cp7sfTwidjcBe4-59">
          <mxGeometry x="30" width="150" height="30" as="geometry">
            <mxRectangle width="150" height="30" as="alternateBounds" />
          </mxGeometry>
        </mxCell>
        <mxCell id="Q-6D90cp7sfTwidjcBe4-71" value="" style="edgeStyle=entityRelationEdgeStyle;fontSize=12;html=1;endArrow=ERoneToMany;rounded=0;exitX=1;exitY=0.5;exitDx=0;exitDy=0;entryX=0;entryY=0.5;entryDx=0;entryDy=0;" edge="1" parent="1" source="Q-6D90cp7sfTwidjcBe4-7" target="Q-6D90cp7sfTwidjcBe4-23">
          <mxGeometry width="100" height="100" relative="1" as="geometry">
            <mxPoint x="2080" y="520" as="sourcePoint" />
            <mxPoint x="2180" y="420" as="targetPoint" />
            <Array as="points">
              <mxPoint x="1940" y="590" />
            </Array>
          </mxGeometry>
        </mxCell>
        <mxCell id="Q-6D90cp7sfTwidjcBe4-72" value="" style="edgeStyle=entityRelationEdgeStyle;fontSize=12;html=1;endArrow=ERoneToMany;rounded=0;exitX=1;exitY=0.5;exitDx=0;exitDy=0;entryX=0;entryY=0.5;entryDx=0;entryDy=0;" edge="1" parent="1" source="Q-6D90cp7sfTwidjcBe4-7" target="Q-6D90cp7sfTwidjcBe4-36">
          <mxGeometry width="100" height="100" relative="1" as="geometry">
            <mxPoint x="2080" y="520" as="sourcePoint" />
            <mxPoint x="2160" y="680" as="targetPoint" />
          </mxGeometry>
        </mxCell>
        <mxCell id="Q-6D90cp7sfTwidjcBe4-73" value="" style="edgeStyle=entityRelationEdgeStyle;fontSize=12;html=1;endArrow=ERoneToMany;rounded=0;exitX=1;exitY=0.5;exitDx=0;exitDy=0;entryX=0;entryY=0.5;entryDx=0;entryDy=0;" edge="1" parent="1" source="Q-6D90cp7sfTwidjcBe4-59" target="Q-6D90cp7sfTwidjcBe4-26">
          <mxGeometry width="100" height="100" relative="1" as="geometry">
            <mxPoint x="2080" y="520" as="sourcePoint" />
            <mxPoint x="2020" y="410" as="targetPoint" />
            <Array as="points">
              <mxPoint x="1970" y="400" />
              <mxPoint x="1960" y="400" />
            </Array>
          </mxGeometry>
        </mxCell>
        <mxCell id="Q-6D90cp7sfTwidjcBe4-74" value="" style="edgeStyle=entityRelationEdgeStyle;fontSize=12;html=1;endArrow=ERoneToMany;rounded=0;exitX=1;exitY=0.5;exitDx=0;exitDy=0;entryX=0;entryY=0.5;entryDx=0;entryDy=0;" edge="1" parent="1" source="Q-6D90cp7sfTwidjcBe4-33" target="Q-6D90cp7sfTwidjcBe4-49">
          <mxGeometry width="100" height="100" relative="1" as="geometry">
            <mxPoint x="2080" y="520" as="sourcePoint" />
            <mxPoint x="2180" y="420" as="targetPoint" />
          </mxGeometry>
        </mxCell>
        <mxCell id="Q-6D90cp7sfTwidjcBe4-75" value="" style="edgeStyle=entityRelationEdgeStyle;fontSize=12;html=1;endArrow=ERoneToMany;rounded=0;exitX=1;exitY=0.5;exitDx=0;exitDy=0;entryX=0;entryY=0.5;entryDx=0;entryDy=0;" edge="1" parent="1" source="Q-6D90cp7sfTwidjcBe4-33" target="Q-6D90cp7sfTwidjcBe4-52">
          <mxGeometry width="100" height="100" relative="1" as="geometry">
            <mxPoint x="2080" y="520" as="sourcePoint" />
            <mxPoint x="2180" y="420" as="targetPoint" />
          </mxGeometry>
        </mxCell>
        <mxCell id="Q-6D90cp7sfTwidjcBe4-116" value="" style="edgeStyle=entityRelationEdgeStyle;fontSize=12;html=1;endArrow=ERoneToMany;rounded=0;exitX=1;exitY=0.5;exitDx=0;exitDy=0;entryX=0;entryY=0.5;entryDx=0;entryDy=0;" edge="1" parent="1" source="Q-6D90cp7sfTwidjcBe4-59" target="Q-6D90cp7sfTwidjcBe4-113">
          <mxGeometry width="100" height="100" relative="1" as="geometry">
            <mxPoint x="2080" y="390" as="sourcePoint" />
            <mxPoint x="2180" y="290" as="targetPoint" />
          </mxGeometry>
        </mxCell>
        <mxCell id="Q-6D90cp7sfTwidjcBe4-162" value="Организация" style="shape=table;startSize=30;container=1;collapsible=1;childLayout=tableLayout;fixedRows=1;rowLines=0;fontStyle=1;align=center;resizeLast=1;html=1;" vertex="1" parent="1">
          <mxGeometry x="1710" y="815" width="180" height="90" as="geometry" />
        </mxCell>
        <mxCell id="Q-6D90cp7sfTwidjcBe4-163" value="" style="shape=tableRow;horizontal=0;startSize=0;swimlaneHead=0;swimlaneBody=0;fillColor=none;collapsible=0;dropTarget=0;points=[[0,0.5],[1,0.5]];portConstraint=eastwest;top=0;left=0;right=0;bottom=1;" vertex="1" parent="Q-6D90cp7sfTwidjcBe4-162">
          <mxGeometry y="30" width="180" height="30" as="geometry" />
        </mxCell>
        <mxCell id="Q-6D90cp7sfTwidjcBe4-164" value="PK" style="shape=partialRectangle;connectable=0;fillColor=none;top=0;left=0;bottom=0;right=0;fontStyle=1;overflow=hidden;whiteSpace=wrap;html=1;" vertex="1" parent="Q-6D90cp7sfTwidjcBe4-163">
          <mxGeometry width="30" height="30" as="geometry">
            <mxRectangle width="30" height="30" as="alternateBounds" />
          </mxGeometry>
        </mxCell>
        <mxCell id="Q-6D90cp7sfTwidjcBe4-165" value="Id организации" style="shape=partialRectangle;connectable=0;fillColor=none;top=0;left=0;bottom=0;right=0;align=left;spacingLeft=6;fontStyle=5;overflow=hidden;whiteSpace=wrap;html=1;" vertex="1" parent="Q-6D90cp7sfTwidjcBe4-163">
          <mxGeometry x="30" width="150" height="30" as="geometry">
            <mxRectangle width="150" height="30" as="alternateBounds" />
          </mxGeometry>
        </mxCell>
        <mxCell id="Q-6D90cp7sfTwidjcBe4-166" value="" style="shape=tableRow;horizontal=0;startSize=0;swimlaneHead=0;swimlaneBody=0;fillColor=none;collapsible=0;dropTarget=0;points=[[0,0.5],[1,0.5]];portConstraint=eastwest;top=0;left=0;right=0;bottom=0;" vertex="1" parent="Q-6D90cp7sfTwidjcBe4-162">
          <mxGeometry y="60" width="180" height="30" as="geometry" />
        </mxCell>
        <mxCell id="Q-6D90cp7sfTwidjcBe4-167" value="" style="shape=partialRectangle;connectable=0;fillColor=none;top=0;left=0;bottom=0;right=0;editable=1;overflow=hidden;whiteSpace=wrap;html=1;" vertex="1" parent="Q-6D90cp7sfTwidjcBe4-166">
          <mxGeometry width="30" height="30" as="geometry">
            <mxRectangle width="30" height="30" as="alternateBounds" />
          </mxGeometry>
        </mxCell>
        <mxCell id="Q-6D90cp7sfTwidjcBe4-168" value="Имя организации" style="shape=partialRectangle;connectable=0;fillColor=none;top=0;left=0;bottom=0;right=0;align=left;spacingLeft=6;overflow=hidden;whiteSpace=wrap;html=1;" vertex="1" parent="Q-6D90cp7sfTwidjcBe4-166">
          <mxGeometry x="30" width="150" height="30" as="geometry">
            <mxRectangle width="150" height="30" as="alternateBounds" />
          </mxGeometry>
        </mxCell>
        <mxCell id="Q-6D90cp7sfTwidjcBe4-175" value="Пользователь" style="shape=table;startSize=30;container=1;collapsible=1;childLayout=tableLayout;fixedRows=1;rowLines=0;fontStyle=1;align=center;resizeLast=1;html=1;" vertex="1" parent="1">
          <mxGeometry x="1740" y="945" width="180" height="90" as="geometry" />
        </mxCell>
        <mxCell id="Q-6D90cp7sfTwidjcBe4-176" value="" style="shape=tableRow;horizontal=0;startSize=0;swimlaneHead=0;swimlaneBody=0;fillColor=none;collapsible=0;dropTarget=0;points=[[0,0.5],[1,0.5]];portConstraint=eastwest;top=0;left=0;right=0;bottom=1;" vertex="1" parent="Q-6D90cp7sfTwidjcBe4-175">
          <mxGeometry y="30" width="180" height="30" as="geometry" />
        </mxCell>
        <mxCell id="Q-6D90cp7sfTwidjcBe4-177" value="PK" style="shape=partialRectangle;connectable=0;fillColor=none;top=0;left=0;bottom=0;right=0;fontStyle=1;overflow=hidden;whiteSpace=wrap;html=1;" vertex="1" parent="Q-6D90cp7sfTwidjcBe4-176">
          <mxGeometry width="30" height="30" as="geometry">
            <mxRectangle width="30" height="30" as="alternateBounds" />
          </mxGeometry>
        </mxCell>
        <mxCell id="Q-6D90cp7sfTwidjcBe4-178" value="Id пользователя" style="shape=partialRectangle;connectable=0;fillColor=none;top=0;left=0;bottom=0;right=0;align=left;spacingLeft=6;fontStyle=5;overflow=hidden;whiteSpace=wrap;html=1;" vertex="1" parent="Q-6D90cp7sfTwidjcBe4-176">
          <mxGeometry x="30" width="150" height="30" as="geometry">
            <mxRectangle width="150" height="30" as="alternateBounds" />
          </mxGeometry>
        </mxCell>
        <mxCell id="Q-6D90cp7sfTwidjcBe4-179" value="" style="shape=tableRow;horizontal=0;startSize=0;swimlaneHead=0;swimlaneBody=0;fillColor=none;collapsible=0;dropTarget=0;points=[[0,0.5],[1,0.5]];portConstraint=eastwest;top=0;left=0;right=0;bottom=0;" vertex="1" parent="Q-6D90cp7sfTwidjcBe4-175">
          <mxGeometry y="60" width="180" height="30" as="geometry" />
        </mxCell>
        <mxCell id="Q-6D90cp7sfTwidjcBe4-180" value="" style="shape=partialRectangle;connectable=0;fillColor=none;top=0;left=0;bottom=0;right=0;editable=1;overflow=hidden;whiteSpace=wrap;html=1;" vertex="1" parent="Q-6D90cp7sfTwidjcBe4-179">
          <mxGeometry width="30" height="30" as="geometry">
            <mxRectangle width="30" height="30" as="alternateBounds" />
          </mxGeometry>
        </mxCell>
        <mxCell id="Q-6D90cp7sfTwidjcBe4-181" value="Имя пользователя" style="shape=partialRectangle;connectable=0;fillColor=none;top=0;left=0;bottom=0;right=0;align=left;spacingLeft=6;overflow=hidden;whiteSpace=wrap;html=1;" vertex="1" parent="Q-6D90cp7sfTwidjcBe4-179">
          <mxGeometry x="30" width="150" height="30" as="geometry">
            <mxRectangle width="150" height="30" as="alternateBounds" />
          </mxGeometry>
        </mxCell>
        <mxCell id="Q-6D90cp7sfTwidjcBe4-201" value="Пользователь_Организация" style="shape=table;startSize=30;container=1;collapsible=1;childLayout=tableLayout;fixedRows=1;rowLines=0;fontStyle=1;align=center;resizeLast=1;html=1;" vertex="1" parent="1">
          <mxGeometry x="1980" y="740" width="180" height="90" as="geometry" />
        </mxCell>
        <mxCell id="Q-6D90cp7sfTwidjcBe4-202" value="" style="shape=tableRow;horizontal=0;startSize=0;swimlaneHead=0;swimlaneBody=0;fillColor=none;collapsible=0;dropTarget=0;points=[[0,0.5],[1,0.5]];portConstraint=eastwest;top=0;left=0;right=0;bottom=0;" vertex="1" parent="Q-6D90cp7sfTwidjcBe4-201">
          <mxGeometry y="30" width="180" height="30" as="geometry" />
        </mxCell>
        <mxCell id="Q-6D90cp7sfTwidjcBe4-203" value="FK" style="shape=partialRectangle;connectable=0;fillColor=none;top=0;left=0;bottom=0;right=0;editable=1;overflow=hidden;whiteSpace=wrap;html=1;" vertex="1" parent="Q-6D90cp7sfTwidjcBe4-202">
          <mxGeometry width="30" height="30" as="geometry">
            <mxRectangle width="30" height="30" as="alternateBounds" />
          </mxGeometry>
        </mxCell>
        <mxCell id="Q-6D90cp7sfTwidjcBe4-204" value="Id пользователя" style="shape=partialRectangle;connectable=0;fillColor=none;top=0;left=0;bottom=0;right=0;align=left;spacingLeft=6;overflow=hidden;whiteSpace=wrap;html=1;" vertex="1" parent="Q-6D90cp7sfTwidjcBe4-202">
          <mxGeometry x="30" width="150" height="30" as="geometry">
            <mxRectangle width="150" height="30" as="alternateBounds" />
          </mxGeometry>
        </mxCell>
        <mxCell id="Q-6D90cp7sfTwidjcBe4-205" value="" style="shape=tableRow;horizontal=0;startSize=0;swimlaneHead=0;swimlaneBody=0;fillColor=none;collapsible=0;dropTarget=0;points=[[0,0.5],[1,0.5]];portConstraint=eastwest;top=0;left=0;right=0;bottom=0;" vertex="1" parent="Q-6D90cp7sfTwidjcBe4-201">
          <mxGeometry y="60" width="180" height="30" as="geometry" />
        </mxCell>
        <mxCell id="Q-6D90cp7sfTwidjcBe4-206" value="FK" style="shape=partialRectangle;connectable=0;fillColor=none;top=0;left=0;bottom=0;right=0;editable=1;overflow=hidden;whiteSpace=wrap;html=1;" vertex="1" parent="Q-6D90cp7sfTwidjcBe4-205">
          <mxGeometry width="30" height="30" as="geometry">
            <mxRectangle width="30" height="30" as="alternateBounds" />
          </mxGeometry>
        </mxCell>
        <mxCell id="Q-6D90cp7sfTwidjcBe4-207" value="Id организации" style="shape=partialRectangle;connectable=0;fillColor=none;top=0;left=0;bottom=0;right=0;align=left;spacingLeft=6;overflow=hidden;whiteSpace=wrap;html=1;" vertex="1" parent="Q-6D90cp7sfTwidjcBe4-205">
          <mxGeometry x="30" width="150" height="30" as="geometry">
            <mxRectangle width="150" height="30" as="alternateBounds" />
          </mxGeometry>
        </mxCell>
        <mxCell id="Q-6D90cp7sfTwidjcBe4-208" value="Сертификат" style="shape=table;startSize=30;container=1;collapsible=1;childLayout=tableLayout;fixedRows=1;rowLines=0;fontStyle=1;align=center;resizeLast=1;html=1;" vertex="1" parent="1">
          <mxGeometry x="2020" y="930" width="180" height="150" as="geometry" />
        </mxCell>
        <mxCell id="Q-6D90cp7sfTwidjcBe4-209" value="" style="shape=tableRow;horizontal=0;startSize=0;swimlaneHead=0;swimlaneBody=0;fillColor=none;collapsible=0;dropTarget=0;points=[[0,0.5],[1,0.5]];portConstraint=eastwest;top=0;left=0;right=0;bottom=1;" vertex="1" parent="Q-6D90cp7sfTwidjcBe4-208">
          <mxGeometry y="30" width="180" height="30" as="geometry" />
        </mxCell>
        <mxCell id="Q-6D90cp7sfTwidjcBe4-210" value="PK" style="shape=partialRectangle;connectable=0;fillColor=none;top=0;left=0;bottom=0;right=0;fontStyle=1;overflow=hidden;whiteSpace=wrap;html=1;" vertex="1" parent="Q-6D90cp7sfTwidjcBe4-209">
          <mxGeometry width="30" height="30" as="geometry">
            <mxRectangle width="30" height="30" as="alternateBounds" />
          </mxGeometry>
        </mxCell>
        <mxCell id="Q-6D90cp7sfTwidjcBe4-211" value="Id сертификата" style="shape=partialRectangle;connectable=0;fillColor=none;top=0;left=0;bottom=0;right=0;align=left;spacingLeft=6;fontStyle=5;overflow=hidden;whiteSpace=wrap;html=1;" vertex="1" parent="Q-6D90cp7sfTwidjcBe4-209">
          <mxGeometry x="30" width="150" height="30" as="geometry">
            <mxRectangle width="150" height="30" as="alternateBounds" />
          </mxGeometry>
        </mxCell>
        <mxCell id="Q-6D90cp7sfTwidjcBe4-212" value="" style="shape=tableRow;horizontal=0;startSize=0;swimlaneHead=0;swimlaneBody=0;fillColor=none;collapsible=0;dropTarget=0;points=[[0,0.5],[1,0.5]];portConstraint=eastwest;top=0;left=0;right=0;bottom=0;" vertex="1" parent="Q-6D90cp7sfTwidjcBe4-208">
          <mxGeometry y="60" width="180" height="30" as="geometry" />
        </mxCell>
        <mxCell id="Q-6D90cp7sfTwidjcBe4-213" value="FK" style="shape=partialRectangle;connectable=0;fillColor=none;top=0;left=0;bottom=0;right=0;editable=1;overflow=hidden;whiteSpace=wrap;html=1;" vertex="1" parent="Q-6D90cp7sfTwidjcBe4-212">
          <mxGeometry width="30" height="30" as="geometry">
            <mxRectangle width="30" height="30" as="alternateBounds" />
          </mxGeometry>
        </mxCell>
        <mxCell id="Q-6D90cp7sfTwidjcBe4-214" value="EnrollmentId" style="shape=partialRectangle;connectable=0;fillColor=none;top=0;left=0;bottom=0;right=0;align=left;spacingLeft=6;overflow=hidden;whiteSpace=wrap;html=1;" vertex="1" parent="Q-6D90cp7sfTwidjcBe4-212">
          <mxGeometry x="30" width="150" height="30" as="geometry">
            <mxRectangle width="150" height="30" as="alternateBounds" />
          </mxGeometry>
        </mxCell>
        <mxCell id="Q-6D90cp7sfTwidjcBe4-215" value="" style="shape=tableRow;horizontal=0;startSize=0;swimlaneHead=0;swimlaneBody=0;fillColor=none;collapsible=0;dropTarget=0;points=[[0,0.5],[1,0.5]];portConstraint=eastwest;top=0;left=0;right=0;bottom=0;" vertex="1" parent="Q-6D90cp7sfTwidjcBe4-208">
          <mxGeometry y="90" width="180" height="30" as="geometry" />
        </mxCell>
        <mxCell id="Q-6D90cp7sfTwidjcBe4-216" value="FK" style="shape=partialRectangle;connectable=0;top=0;left=0;bottom=0;right=0;editable=1;overflow=hidden;whiteSpace=wrap;html=1;perimeterSpacing=0;fillColor=none;labelBorderColor=none;" vertex="1" parent="Q-6D90cp7sfTwidjcBe4-215">
          <mxGeometry width="30" height="30" as="geometry">
            <mxRectangle width="30" height="30" as="alternateBounds" />
          </mxGeometry>
        </mxCell>
        <mxCell id="Q-6D90cp7sfTwidjcBe4-217" value="Атрибут орг подразделения" style="shape=partialRectangle;connectable=0;fillColor=none;top=0;left=0;bottom=0;right=0;align=left;spacingLeft=6;overflow=hidden;whiteSpace=wrap;html=1;" vertex="1" parent="Q-6D90cp7sfTwidjcBe4-215">
          <mxGeometry x="30" width="150" height="30" as="geometry">
            <mxRectangle width="150" height="30" as="alternateBounds" />
          </mxGeometry>
        </mxCell>
        <mxCell id="Q-6D90cp7sfTwidjcBe4-218" value="" style="shape=tableRow;horizontal=0;startSize=0;swimlaneHead=0;swimlaneBody=0;fillColor=none;collapsible=0;dropTarget=0;points=[[0,0.5],[1,0.5]];portConstraint=eastwest;top=0;left=0;right=0;bottom=0;" vertex="1" parent="Q-6D90cp7sfTwidjcBe4-208">
          <mxGeometry y="120" width="180" height="30" as="geometry" />
        </mxCell>
        <mxCell id="Q-6D90cp7sfTwidjcBe4-219" value="" style="shape=partialRectangle;connectable=0;fillColor=none;top=0;left=0;bottom=0;right=0;editable=1;overflow=hidden;whiteSpace=wrap;html=1;" vertex="1" parent="Q-6D90cp7sfTwidjcBe4-218">
          <mxGeometry width="30" height="30" as="geometry">
            <mxRectangle width="30" height="30" as="alternateBounds" />
          </mxGeometry>
        </mxCell>
        <mxCell id="Q-6D90cp7sfTwidjcBe4-220" value="Атрибут роли" style="shape=partialRectangle;connectable=0;fillColor=none;top=0;left=0;bottom=0;right=0;align=left;spacingLeft=6;overflow=hidden;whiteSpace=wrap;html=1;" vertex="1" parent="Q-6D90cp7sfTwidjcBe4-218">
          <mxGeometry x="30" width="150" height="30" as="geometry">
            <mxRectangle width="150" height="30" as="alternateBounds" />
          </mxGeometry>
        </mxCell>
        <mxCell id="Q-6D90cp7sfTwidjcBe4-221" value="Транзакция" style="shape=table;startSize=30;container=1;collapsible=1;childLayout=tableLayout;fixedRows=1;rowLines=0;fontStyle=1;align=center;resizeLast=1;html=1;" vertex="1" parent="1">
          <mxGeometry x="2260" y="755" width="180" height="120" as="geometry" />
        </mxCell>
        <mxCell id="Q-6D90cp7sfTwidjcBe4-222" value="" style="shape=tableRow;horizontal=0;startSize=0;swimlaneHead=0;swimlaneBody=0;fillColor=none;collapsible=0;dropTarget=0;points=[[0,0.5],[1,0.5]];portConstraint=eastwest;top=0;left=0;right=0;bottom=1;" vertex="1" parent="Q-6D90cp7sfTwidjcBe4-221">
          <mxGeometry y="30" width="180" height="30" as="geometry" />
        </mxCell>
        <mxCell id="Q-6D90cp7sfTwidjcBe4-223" value="PK" style="shape=partialRectangle;connectable=0;fillColor=none;top=0;left=0;bottom=0;right=0;fontStyle=1;overflow=hidden;whiteSpace=wrap;html=1;" vertex="1" parent="Q-6D90cp7sfTwidjcBe4-222">
          <mxGeometry width="30" height="30" as="geometry">
            <mxRectangle width="30" height="30" as="alternateBounds" />
          </mxGeometry>
        </mxCell>
        <mxCell id="Q-6D90cp7sfTwidjcBe4-224" value="Id транзакции" style="shape=partialRectangle;connectable=0;fillColor=none;top=0;left=0;bottom=0;right=0;align=left;spacingLeft=6;fontStyle=5;overflow=hidden;whiteSpace=wrap;html=1;" vertex="1" parent="Q-6D90cp7sfTwidjcBe4-222">
          <mxGeometry x="30" width="150" height="30" as="geometry">
            <mxRectangle width="150" height="30" as="alternateBounds" />
          </mxGeometry>
        </mxCell>
        <mxCell id="Q-6D90cp7sfTwidjcBe4-225" value="" style="shape=tableRow;horizontal=0;startSize=0;swimlaneHead=0;swimlaneBody=0;fillColor=none;collapsible=0;dropTarget=0;points=[[0,0.5],[1,0.5]];portConstraint=eastwest;top=0;left=0;right=0;bottom=0;" vertex="1" parent="Q-6D90cp7sfTwidjcBe4-221">
          <mxGeometry y="60" width="180" height="30" as="geometry" />
        </mxCell>
        <mxCell id="Q-6D90cp7sfTwidjcBe4-226" value="FK" style="shape=partialRectangle;connectable=0;fillColor=none;top=0;left=0;bottom=0;right=0;editable=1;overflow=hidden;whiteSpace=wrap;html=1;" vertex="1" parent="Q-6D90cp7sfTwidjcBe4-225">
          <mxGeometry width="30" height="30" as="geometry">
            <mxRectangle width="30" height="30" as="alternateBounds" />
          </mxGeometry>
        </mxCell>
        <mxCell id="Q-6D90cp7sfTwidjcBe4-227" value="Id сертификата отправителя" style="shape=partialRectangle;connectable=0;fillColor=none;top=0;left=0;bottom=0;right=0;align=left;spacingLeft=6;overflow=hidden;whiteSpace=wrap;html=1;" vertex="1" parent="Q-6D90cp7sfTwidjcBe4-225">
          <mxGeometry x="30" width="150" height="30" as="geometry">
            <mxRectangle width="150" height="30" as="alternateBounds" />
          </mxGeometry>
        </mxCell>
        <mxCell id="Q-6D90cp7sfTwidjcBe4-228" value="" style="shape=tableRow;horizontal=0;startSize=0;swimlaneHead=0;swimlaneBody=0;fillColor=none;collapsible=0;dropTarget=0;points=[[0,0.5],[1,0.5]];portConstraint=eastwest;top=0;left=0;right=0;bottom=0;" vertex="1" parent="Q-6D90cp7sfTwidjcBe4-221">
          <mxGeometry y="90" width="180" height="30" as="geometry" />
        </mxCell>
        <mxCell id="Q-6D90cp7sfTwidjcBe4-229" value="FK" style="shape=partialRectangle;connectable=0;fillColor=none;top=0;left=0;bottom=0;right=0;editable=1;overflow=hidden;whiteSpace=wrap;html=1;" vertex="1" parent="Q-6D90cp7sfTwidjcBe4-228">
          <mxGeometry width="30" height="30" as="geometry">
            <mxRectangle width="30" height="30" as="alternateBounds" />
          </mxGeometry>
        </mxCell>
        <mxCell id="Q-6D90cp7sfTwidjcBe4-230" value="Id сертификата получателя" style="shape=partialRectangle;connectable=0;fillColor=none;top=0;left=0;bottom=0;right=0;align=left;spacingLeft=6;overflow=hidden;whiteSpace=wrap;html=1;" vertex="1" parent="Q-6D90cp7sfTwidjcBe4-228">
          <mxGeometry x="30" width="150" height="30" as="geometry">
            <mxRectangle width="150" height="30" as="alternateBounds" />
          </mxGeometry>
        </mxCell>
        <mxCell id="Q-6D90cp7sfTwidjcBe4-231" value="" style="edgeStyle=entityRelationEdgeStyle;fontSize=12;html=1;endArrow=ERoneToMany;rounded=0;entryX=0;entryY=0.5;entryDx=0;entryDy=0;" edge="1" parent="1" source="Q-6D90cp7sfTwidjcBe4-176" target="Q-6D90cp7sfTwidjcBe4-202">
          <mxGeometry width="100" height="100" relative="1" as="geometry">
            <mxPoint x="1920" y="990" as="sourcePoint" />
            <mxPoint x="1980" y="750" as="targetPoint" />
            <Array as="points">
              <mxPoint x="1940" y="1001" />
            </Array>
          </mxGeometry>
        </mxCell>
        <mxCell id="Q-6D90cp7sfTwidjcBe4-232" value="" style="edgeStyle=entityRelationEdgeStyle;fontSize=12;html=1;endArrow=ERoneToMany;rounded=0;exitX=1;exitY=0.5;exitDx=0;exitDy=0;entryX=0;entryY=0.5;entryDx=0;entryDy=0;" edge="1" parent="1" source="Q-6D90cp7sfTwidjcBe4-163" target="Q-6D90cp7sfTwidjcBe4-205">
          <mxGeometry width="100" height="100" relative="1" as="geometry">
            <mxPoint x="2090" y="740" as="sourcePoint" />
            <mxPoint x="2190" y="640" as="targetPoint" />
          </mxGeometry>
        </mxCell>
        <mxCell id="Q-6D90cp7sfTwidjcBe4-233" value="" style="edgeStyle=entityRelationEdgeStyle;fontSize=12;html=1;endArrow=ERoneToMany;rounded=0;exitX=1;exitY=0.5;exitDx=0;exitDy=0;entryX=0;entryY=0.5;entryDx=0;entryDy=0;" edge="1" parent="1" source="Q-6D90cp7sfTwidjcBe4-209" target="Q-6D90cp7sfTwidjcBe4-225">
          <mxGeometry width="100" height="100" relative="1" as="geometry">
            <mxPoint x="2090" y="740" as="sourcePoint" />
            <mxPoint x="2190" y="640" as="targetPoint" />
            <Array as="points">
              <mxPoint x="2200" y="870" />
            </Array>
          </mxGeometry>
        </mxCell>
        <mxCell id="Q-6D90cp7sfTwidjcBe4-234" value="" style="edgeStyle=entityRelationEdgeStyle;fontSize=12;html=1;endArrow=ERoneToMany;rounded=0;exitX=1;exitY=0.5;exitDx=0;exitDy=0;entryX=0;entryY=0.5;entryDx=0;entryDy=0;" edge="1" parent="1" source="Q-6D90cp7sfTwidjcBe4-209" target="Q-6D90cp7sfTwidjcBe4-228">
          <mxGeometry width="100" height="100" relative="1" as="geometry">
            <mxPoint x="2090" y="740" as="sourcePoint" />
            <mxPoint x="2190" y="640" as="targetPoint" />
          </mxGeometry>
        </mxCell>
        <mxCell id="Q-6D90cp7sfTwidjcBe4-235" value="" style="edgeStyle=entityRelationEdgeStyle;fontSize=12;html=1;endArrow=ERoneToMany;rounded=0;exitX=1;exitY=0.5;exitDx=0;exitDy=0;entryX=0;entryY=0.5;entryDx=0;entryDy=0;" edge="1" parent="1" source="Q-6D90cp7sfTwidjcBe4-176" target="Q-6D90cp7sfTwidjcBe4-212">
          <mxGeometry width="100" height="100" relative="1" as="geometry">
            <mxPoint x="2090" y="740" as="sourcePoint" />
            <mxPoint x="2190" y="640" as="targetPoint" />
          </mxGeometry>
        </mxCell>
        <mxCell id="Q-6D90cp7sfTwidjcBe4-236" value="" style="edgeStyle=entityRelationEdgeStyle;fontSize=12;html=1;endArrow=ERoneToMany;rounded=0;exitX=1;exitY=0.5;exitDx=0;exitDy=0;entryX=0;entryY=0.5;entryDx=0;entryDy=0;" edge="1" parent="1" source="Q-6D90cp7sfTwidjcBe4-163" target="Q-6D90cp7sfTwidjcBe4-215">
          <mxGeometry width="100" height="100" relative="1" as="geometry">
            <mxPoint x="2090" y="740" as="sourcePoint" />
            <mxPoint x="2190" y="640" as="targetPoint" />
          </mxGeometry>
        </mxCell>
      </root>
    </mxGraphModel>
  </diagram>
</mxfile>
